<?xml version="1.0" standalone="no"?>
<!DOCTYPE svg PUBLIC "-//W3C//DTD SVG 20010904//EN"
 "http://www.w3.org/TR/2001/REC-SVG-20010904/DTD/svg10.dtd">
<svg version="1.0" xmlns="http://www.w3.org/2000/svg"
 width="1080.000000pt" height="1074.000000pt" viewBox="0 0 1080.000000 1074.000000"
 preserveAspectRatio="xMidYMid meet">
<metadata>
Created by potrace 1.16, written by Peter Selinger 2001-2019
</metadata>
<g transform="translate(0.000000,1074.000000) scale(0.100000,-0.100000)"
fill="#000000" stroke="none">
<path d="M5230 7719 c-116 -10 -269 -42 -360 -74 -246 -88 -518 -261 -679
-430 -94 -99 -85 -115 31 -58 83 40 328 136 423 166 110 35 287 77 410 98 180
31 472 32 620 1 164 -34 316 -95 438 -176 79 -52 75 -60 -53 -97 -79 -23 -99
-34 -86 -46 4 -4 120 -6 259 -5 139 1 310 2 380 2 166 0 168 4 56 116 -137
138 -310 263 -473 340 -290 137 -627 194 -966 163z"/>
<path d="M3793 7023 c-13 -3 -23 -10 -23 -17 0 -12 59 -123 99 -186 9 -14 34
-57 56 -96 44 -79 237 -413 272 -472 13 -20 25 -41 27 -47 3 -6 9 -4 14 4 6 8
9 99 8 215 l-1 201 -42 71 c-62 102 -61 104 45 104 48 0 92 -4 99 -8 9 -6 13
-110 15 -422 l3 -415 48 -78 c26 -43 47 -80 47 -83 0 -3 16 -30 35 -60 19 -30
35 -58 35 -63 0 -15 40 -54 48 -47 4 4 9 269 12 589 l5 582 50 3 c38 3 52 -1
62 -14 10 -14 13 -166 13 -728 l0 -710 57 -100 c95 -169 139 -240 151 -244 15
-5 14 -61 12 1093 -1 794 -3 911 -16 921 -11 9 -167 12 -562 11 -301 0 -557
-2 -569 -4z"/>
<path d="M5890 7021 l-25 -7 -3 -1004 c-1 -591 2 -1008 7 -1013 8 -8 74 95
177 278 l39 70 0 373 c0 427 -3 413 79 362 25 -16 46 -37 46 -46 0 -9 -18 -49
-40 -89 -59 -107 -61 -105 73 -105 76 0 118 4 129 13 8 6 48 70 89 140 l73
129 -25 19 c-13 11 -45 31 -71 45 -76 39 -67 48 81 85 54 13 104 32 117 43 19
17 104 160 304 511 9 17 31 53 48 81 18 28 32 56 32 63 0 6 5 11 10 11 20 0 9
31 -15 40 -19 7 -404 8 -533 1 -22 -1 -23 -3 -20 -108 l3 -108 88 -3 c102 -3
105 -7 56 -93 -118 -210 -122 -216 -172 -227 -23 -5 -106 -26 -185 -47 -88
-23 -147 -34 -153 -28 -5 5 -10 141 -12 305 -1 163 -5 299 -8 302 -9 9 -161
14 -189 7z"/>
<path d="M5025 6988 c-8 -46 -2 -805 7 -814 9 -8 162 -14 189 -7 18 5 19 24
21 317 l3 311 156 3 157 2 7 -27 c4 -16 5 -176 4 -357 -3 -260 -6 -332 -17
-342 -11 -11 -66 -14 -263 -14 l-249 0 -10 -26 c-6 -15 -10 -245 -10 -582 l0
-557 30 -60 c16 -33 51 -97 77 -142 27 -44 95 -163 153 -263 58 -100 111 -185
117 -187 18 -7 36 15 72 83 42 78 74 136 193 339 55 94 104 178 109 188 12 22
13 867 1 879 -5 5 -51 7 -103 6 l-94 -3 -7 -40 c-4 -22 -7 -203 -7 -403 l-1
-362 -72 -125 c-40 -69 -78 -125 -85 -125 -11 0 -42 48 -124 195 l-34 60 -3
438 c-2 323 0 443 9 453 9 11 57 14 248 14 130 0 246 3 259 6 l22 6 0 578 c0
518 -2 578 -16 584 -9 3 -177 6 -374 6 l-359 0 -6 -32z"/>
<path d="M6946 6547 c12 -273 -28 -598 -106 -862 -89 -299 -261 -557 -470
-704 -106 -74 -295 -161 -319 -147 -5 3 -19 38 -31 77 -13 43 -26 69 -33 67
-7 -2 -28 -35 -48 -73 -20 -39 -56 -108 -81 -155 -202 -382 -206 -390 -170
-390 56 0 293 91 458 176 242 124 435 273 583 449 245 291 354 612 355 1045 0
237 -24 397 -92 593 -43 123 -54 105 -46 -76z"/>
<path d="M3802 6613 c-13 -24 -38 -127 -59 -243 -25 -139 -24 -509 1 -640 91
-466 343 -827 761 -1090 130 -81 391 -202 488 -226 48 -11 31 18 -37 64 -145
98 -379 308 -479 432 -20 25 -52 65 -72 88 -19 24 -43 57 -52 73 -10 16 -21
29 -25 29 -4 0 -8 5 -8 10 0 6 -23 47 -51 92 -133 214 -230 502 -246 725 -9
129 -11 127 89 93 94 -33 108 -35 108 -17 0 11 -85 149 -236 384 -32 51 -79
125 -104 164 -49 78 -63 90 -78 62z"/>
<path d="M4490 4081 c-281 -39 -467 -256 -484 -564 -2 -34 1 -90 5 -125 43
-308 272 -485 607 -470 163 8 276 55 380 157 l42 42 -2 232 -3 232 -234 3
c-181 2 -236 -1 -243 -10 -10 -16 -8 -151 2 -168 5 -8 47 -12 131 -12 68 0
130 -5 137 -10 8 -7 12 -38 12 -87 0 -46 -5 -84 -12 -94 -21 -26 -113 -67
-175 -77 -160 -26 -329 52 -391 181 -34 70 -48 178 -33 257 32 172 140 284
304 312 98 17 204 -10 314 -80 l31 -21 61 57 c34 31 61 65 61 75 0 20 -80 84
-145 117 -95 47 -249 69 -365 53z"/>
<path d="M2518 4054 c-5 -4 -8 -254 -8 -555 l0 -548 33 -6 c17 -3 140 -4 272
-2 186 3 253 7 298 20 185 53 303 169 368 362 21 60 18 295 -4 364 -36 115
-116 223 -215 291 -18 12 -63 34 -100 48 -65 25 -75 26 -352 30 -157 2 -288 0
-292 -4z m559 -225 c82 -30 153 -104 181 -189 67 -197 -17 -408 -182 -459 -67
-21 -327 -34 -343 -18 -4 5 -9 161 -10 348 l-2 339 149 0 c127 0 158 -3 207
-21z"/>
<path d="M3657 4053 c-4 -3 -7 -251 -7 -549 0 -527 1 -544 19 -554 25 -13 161
-13 181 0 13 8 15 80 16 542 1 302 -3 541 -8 551 -7 14 -23 17 -102 17 -51 0
-96 -3 -99 -7z"/>
<path d="M5213 4053 c-10 -4 -13 -124 -13 -553 0 -514 1 -549 18 -553 31 -8
168 -6 183 3 12 8 14 89 14 547 0 296 -4 544 -9 551 -8 12 -166 17 -193 5z"/>
<path d="M5592 4048 c-17 -17 -16 -162 1 -177 8 -6 76 -12 173 -13 l159 -3 3
-448 2 -448 27 -10 c28 -11 178 -7 190 4 3 4 5 204 4 445 -2 363 0 441 12 450
8 7 72 12 173 14 l159 3 0 95 0 95 -445 3 c-338 2 -449 -1 -458 -10z"/>
<path d="M6992 4048 c-7 -7 -12 -16 -12 -20 0 -9 -62 -148 -136 -307 -24 -51
-44 -95 -44 -97 0 -3 -39 -91 -86 -197 -48 -106 -97 -214 -109 -242 -85 -189
-98 -227 -84 -236 18 -11 189 -10 211 2 9 5 20 19 24 31 3 13 22 56 41 96 l34
72 285 0 285 0 20 -47 c30 -70 68 -153 71 -154 2 0 44 -3 93 -5 141 -7 154 1
116 75 -10 20 -26 54 -36 76 -28 65 -260 586 -285 640 -22 49 -31 67 -100 225
-19 41 -38 81 -43 88 -13 17 -228 17 -245 0z m194 -403 c90 -210 114 -267 114
-276 0 -5 -83 -9 -185 -9 -123 0 -185 4 -185 11 0 9 68 169 122 289 12 25 29
65 40 89 12 28 22 41 28 35 5 -5 35 -68 66 -139z"/>
<path d="M7843 4054 c-20 -8 -19 -1087 0 -1103 10 -7 125 -11 380 -10 313 0
369 3 382 15 20 20 21 166 2 183 -9 7 -105 12 -283 13 l-269 3 -5 450 -5 450
-95 2 c-52 1 -101 -1 -107 -3z"/>
</g>
</svg>
